<svg width="69" height="66" viewBox="0 0 69 66" fill="none" xmlns="http://www.w3.org/2000/svg">
<path d="M68 0H20C19.7348 0 19.4804 0.105357 19.2929 0.292893C19.1054 0.48043 19 0.734784 19 1V61C19 61.2652 19.1054 61.5196 19.2929 61.7071C19.4804 61.8946 19.7348 62 20 62H68C68.2652 62 68.5196 61.8946 68.7071 61.7071C68.8946 61.5196 69 61.2652 69 61V1C69 0.734784 68.8946 0.48043 68.7071 0.292893C68.5196 0.105357 68.2652 0 68 0ZM67 60H21V14H67V60ZM67 12H21V2H67V12Z" fill="#373E9F"/>
<path d="M63 28H60C59.7348 28 59.4804 28.1054 59.2929 28.2929C59.1054 28.4804 59 28.7348 59 29V29.0075C57.5497 26.2886 55.3883 24.0145 52.7464 22.4281C50.1046 20.8417 47.0816 20.0024 44 20C34.6263 20 27 27.6263 27 37C27 46.3737 34.6263 54 44 54C47.2907 53.9968 50.51 53.0399 53.2682 51.2452C56.0264 49.4505 58.2053 46.8948 59.5412 43.8875C59.6829 43.9614 59.8403 44 60 44H63C63.2652 44 63.5196 43.8946 63.7071 43.7071C63.8946 43.5196 64 43.2652 64 43V29C64 28.7348 63.8946 28.4804 63.7071 28.2929C63.5196 28.1054 63.2652 28 63 28ZM44 52C41.0333 52 38.1332 51.1203 35.6664 49.472C33.1997 47.8238 31.2771 45.4811 30.1418 42.7402C29.0065 39.9994 28.7094 36.9834 29.2882 34.0736C29.867 31.1639 31.2956 28.4912 33.3934 26.3934C35.4912 24.2956 38.1639 22.867 41.0736 22.2882C43.9834 21.7094 46.9994 22.0065 49.7402 23.1418C52.4811 24.2771 54.8238 26.1997 56.472 28.6664C58.1203 31.1332 59 34.0333 59 37C58.9956 40.9769 57.4138 44.7896 54.6017 47.6017C51.7896 50.4138 47.9769 51.9956 44 52ZM62 42H61V30H62V42Z" fill="#373E9F"/>
<path d="M44 24C41.4288 24 38.9154 24.7624 36.7776 26.1909C34.6398 27.6194 32.9735 29.6497 31.9896 32.0251C31.0056 34.4006 30.7482 37.0144 31.2498 39.5362C31.7514 42.0579 32.9895 44.3743 34.8076 46.1924C36.6257 48.0105 38.9421 49.2486 41.4638 49.7502C43.9856 50.2518 46.5994 49.9944 48.9749 49.0104C51.3503 48.0265 53.3807 46.3603 54.8091 44.2224C56.2376 42.0846 57 39.5712 57 37C56.9963 33.5533 55.6255 30.2489 53.1883 27.8117C50.7511 25.3745 47.4467 24.0037 44 24ZM44 26C46.8034 26.0035 49.4999 27.0758 51.54 28.9984C53.5802 30.921 54.8104 33.5493 54.98 36.3475C53.4138 36.9537 48.8875 38.3262 44.4475 36.105C39.89 33.8275 35.3938 34.7387 33.1038 35.4925C33.4711 32.8628 34.7759 30.4542 36.7779 28.71C38.78 26.9658 41.3447 26.0035 44 26ZM44 48C41.1967 47.9965 38.5001 46.9242 36.46 45.0016C34.4198 43.079 33.1896 40.4507 33.02 37.6525C34.5863 37.0462 39.1125 35.6737 43.5525 37.895C45.4891 38.8579 47.6247 39.3529 49.7875 39.34C51.5235 39.3322 53.2475 39.0512 54.8963 38.5075C54.5289 41.1372 53.2242 43.5458 51.2221 45.29C49.22 47.0342 46.6553 47.9965 44 48Z" fill="#373E9F"/>
<path d="M28 4H24C23.7348 4 23.4804 4.10536 23.2929 4.29289C23.1054 4.48043 23 4.73478 23 5V9C23 9.26522 23.1054 9.51957 23.2929 9.70711C23.4804 9.89464 23.7348 10 24 10H28C28.2652 10 28.5196 9.89464 28.7071 9.70711C28.8946 9.51957 29 9.26522 29 9V5C29 4.73478 28.8946 4.48043 28.7071 4.29289C28.5196 4.10536 28.2652 4 28 4ZM27 8H25V6H27V8Z" fill="#373E9F"/>
<path d="M35 4H31C30.7348 4 30.4804 4.10536 30.2929 4.29289C30.1054 4.48043 30 4.73478 30 5V9C30 9.26522 30.1054 9.51957 30.2929 9.70711C30.4804 9.89464 30.7348 10 31 10H35C35.2652 10 35.5196 9.89464 35.7071 9.70711C35.8946 9.51957 36 9.26522 36 9V5C36 4.73478 35.8946 4.48043 35.7071 4.29289C35.5196 4.10536 35.2652 4 35 4ZM34 8H32V6H34V8Z" fill="#373E9F"/>
<path d="M64 4H48C47.7348 4 47.4804 4.10536 47.2929 4.29289C47.1054 4.48043 47 4.73478 47 5V9C47 9.26522 47.1054 9.51957 47.2929 9.70711C47.4804 9.89464 47.7348 10 48 10H64C64.2652 10 64.5196 9.89464 64.7071 9.70711C64.8946 9.51957 65 9.26522 65 9V5C65 4.73478 64.8946 4.48043 64.7071 4.29289C64.5196 4.10536 64.2652 4 64 4ZM63 8H49V6H63V8Z" fill="#373E9F"/>
<path d="M38.2053 63.1322L27.1215 52.0483C29.4237 49.4922 30.8386 46.122 30.8386 42.4192C30.8386 34.4685 24.3701 28 16.4193 28C8.46855 28 2 34.4685 2 42.4193C2 50.3701 8.46855 56.8386 16.4193 56.8386C20.1221 56.8386 23.4922 55.4237 26.0484 53.1215L37.1322 64.2053C37.2804 64.3535 37.4747 64.4277 37.6688 64.4277C37.863 64.4277 38.0571 64.3535 38.2054 64.2053C38.5018 63.9089 38.5018 63.4286 38.2053 63.1322ZM16.4193 55.3208C9.30603 55.3208 3.51787 49.5333 3.51787 42.4193C3.51787 35.3053 9.30603 29.5178 16.4193 29.5178C23.5326 29.5178 29.3208 35.3052 29.3208 42.4193C29.3208 49.5334 23.5326 55.3208 16.4193 55.3208Z" fill="#FFC614" stroke="#FFC614" stroke-width="3"/>
</svg>
