<svg width="71" height="64" viewBox="0 0 71 64" fill="none" xmlns="http://www.w3.org/2000/svg">
<path d="M21.5702 14.7247C17.7865 14.7247 14.7081 11.6462 14.7081 7.86222C14.7081 4.07834 17.7865 1 21.5702 1C24.7911 1 27.5008 3.23042 28.2359 6.22769C28.3028 6.50051 28.3534 6.77969 28.3864 7.06412C28.4169 7.32599 28.4326 7.59231 28.4326 7.86222C28.4326 11.6462 25.3542 14.7247 21.5702 14.7247ZM21.5702 2.18494C19.0078 2.18494 16.8364 3.89144 16.1329 6.22769C16.0556 6.48422 15.996 6.74833 15.9556 7.01862C15.9534 7.03377 15.9511 7.04893 15.949 7.06412C15.9122 7.32494 15.8931 7.59139 15.8931 7.86222C15.8931 10.9928 18.4399 13.5398 21.5702 13.5398C24.7007 13.5398 27.2476 10.9928 27.2476 7.86222C27.2476 7.59139 27.2286 7.32494 27.1917 7.06412C27.1513 6.77796 27.0894 6.49859 27.0078 6.22769C26.3042 3.89144 24.1327 2.18494 21.5702 2.18494Z" fill="#373E9F"/>
<path d="M27.0078 6.22769C27.0894 6.49859 27.1513 6.77796 27.1917 7.06412H16.0011L15.9556 7.01862C15.996 6.74833 16.0556 6.48422 16.1329 6.22769H27.0078Z" fill="#373E9F"/>
<path d="M28.3864 7.06412C28.3534 6.77969 28.3028 6.50051 28.2359 6.22769H33.9844V7.06412H28.3864Z" fill="#373E9F"/>
<path d="M15.949 7.06412C15.9122 7.32494 15.8931 7.59139 15.8931 7.86222C15.8931 10.9928 18.4399 13.5398 21.5702 13.5398C24.7007 13.5398 27.2476 10.9928 27.2476 7.86222C27.2476 7.59139 27.2286 7.32494 27.1917 7.06412M15.949 7.06412H16.0011M15.949 7.06412C15.9511 7.04893 15.9534 7.03377 15.9556 7.01862M16.0011 7.06412H27.1917M16.0011 7.06412L15.9556 7.01862M27.0078 6.22769C27.0894 6.49859 27.1513 6.77796 27.1917 7.06412M27.0078 6.22769H16.1329M27.0078 6.22769C26.3042 3.89144 24.1327 2.18494 21.5702 2.18494C19.0078 2.18494 16.8364 3.89144 16.1329 6.22769M27.0078 6.22769H28.2359M27.1917 7.06412H28.3864M15.9556 7.01862C15.9961 6.74833 16.0556 6.48422 16.1329 6.22769M15.9556 7.01862L15.1647 6.22769H16.1329M28.3864 7.06412C28.3534 6.77969 28.3028 6.50052 28.2359 6.22769M28.3864 7.06412H33.9844V6.22769H28.2359M28.3864 7.06412C28.4169 7.32599 28.4326 7.59231 28.4326 7.86222C28.4326 11.6462 25.3542 14.7247 21.5702 14.7247C17.7865 14.7247 14.7081 11.6462 14.7081 7.86222C14.7081 4.07834 17.7865 1 21.5702 1C24.7911 1 27.5008 3.23042 28.2359 6.22769" stroke="#373E9F"/>
<path d="M54.5858 17H67.4147C68.8404 17 70.0002 17.8638 70.0002 18.9254V61.0744C70.0002 62.1362 68.8404 63 67.4147 63H54.5858C53.1601 63 52.0002 62.1362 52.0002 61.0744V18.9254C52.0004 17.8638 53.1602 17 54.5858 17ZM68.6924 61.0746V18.9254C68.6924 18.4007 68.1192 17.974 67.4147 17.974H64.8719V62.026H67.4147C68.1192 62.026 68.6924 61.5991 68.6924 61.0746ZM53.3082 61.0746C53.3082 61.5993 53.8814 62.0261 54.5859 62.0261H63.5641V17.974H58.6407V32.3912C58.6407 32.6601 58.3481 32.8782 57.9868 32.8782C57.6255 32.8782 57.3329 32.6601 57.3329 32.3912V17.974H54.5858C53.8812 17.974 53.3081 18.4009 53.3081 18.9254L53.3082 61.0746Z" fill="#373E9F" stroke="#373E9F"/>
<path fill-rule="evenodd" clip-rule="evenodd" d="M36.5151 29.7737C34.9336 31.3633 32.4608 33.5482 32.4608 33.5482C31.9024 34.0708 31.1736 34.3586 30.4081 34.3586C29.6358 34.3586 28.8866 34.0572 28.3276 33.5249V38.2905L39.1629 38.5094C39.1666 38.5094 39.1705 38.5094 39.1744 38.5095C40.9382 38.5466 42.5004 39.6288 43.1547 41.2675C43.3726 41.8124 43.4769 42.3889 43.4655 42.9691C43.4655 42.976 43.4653 42.9847 43.4649 42.9933L43.1581 58.1715C43.1103 60.5398 41.1449 62.4667 38.7766 62.4667C38.7467 62.4667 38.7172 62.4664 38.6871 62.4658C37.5162 62.4423 36.4245 61.9641 35.6136 61.1196C34.8028 60.2752 34.3691 59.1653 34.3928 57.9946L34.6109 47.1866L24.9607 46.9917L24.9608 56.8053C24.9611 58.5714 23.9103 60.157 22.2844 60.8447C21.7432 61.0739 21.1687 61.1899 20.5906 61.1896C20.5835 61.1896 20.5749 61.1894 20.5661 61.1896L5.38362 61.1895C5.37093 61.1895 5.35867 61.1896 5.34612 61.1893C2.94668 61.1692 1.00003 59.2106 1.00003 56.8063C0.999886 55.6351 1.45574 54.5341 2.28367 53.7062C3.1116 52.8783 4.21247 52.4223 5.3832 52.4223L16.1931 52.4221L16.1934 44.7562C15.3278 43.6205 14.8124 42.204 14.8124 40.669V22.9067C14.8124 19.1804 17.8439 16.1489 21.5701 16.1489C25.2962 16.1489 28.3277 19.1804 28.3277 22.9067V24.7271L30.5593 27.1076C32.2687 25.5119 33.2271 24.6173 34.9365 23.0216C35.3776 22.6046 35.9262 22.3377 36.5151 22.2413C36.7005 22.2165 37.1969 22.19 37.7001 22.2827C38.165 22.3941 38.6006 22.6143 38.9652 22.9271C41.2771 25.239 38.0967 28.184 36.5151 29.7737ZM31.6524 32.6821C31.3131 32.9995 30.8715 33.1738 30.4079 33.1738C29.9001 33.1738 29.4283 32.9705 29.0794 32.6014L20.8644 23.8324C20.1718 23.0995 20.2045 21.9429 20.9354 21.252C21.2754 20.9305 21.7204 20.7535 22.1879 20.7535C22.6949 20.7535 23.1657 20.9562 23.5137 21.3243L30.0992 28.3492C30.3228 28.5876 30.6967 28.6002 30.9357 28.3771L35.748 23.8852C36.0908 23.5611 36.5356 23.384 37.0033 23.384C37.5102 23.384 37.9811 23.5869 38.3291 23.9551C38.6638 24.3093 38.8406 24.7724 38.8269 25.2595C38.8132 25.7465 38.6107 26.1991 38.2567 26.5336L31.6524 32.6821ZM20.0014 24.6444L27.1428 32.2674L27.1425 38.2667L23.9797 38.2028C21.569 38.1532 19.5567 40.0984 19.508 42.4969C19.4768 44.0521 20.2643 45.4361 21.4732 46.2391C18.4452 46.1872 15.9972 43.7094 15.9972 40.6692V22.9067C15.9972 19.8338 18.4972 17.3339 21.5699 17.3339C24.6427 17.3339 27.1427 19.8338 27.1427 22.9067V23.4631L24.3763 20.5122C23.8088 19.9117 23.0117 19.5685 22.1878 19.5685C21.4162 19.5685 20.6822 19.8606 20.1211 20.3909C18.9157 21.5305 18.8619 23.4387 20.0014 24.6444ZM35.8075 46.6184C35.8142 46.2912 35.5544 46.0206 35.2272 46.0141L23.8414 45.7844L23.8272 45.7841C22.0636 45.7482 20.6575 44.2845 20.6929 42.521C20.7279 40.793 22.1619 39.3869 23.8896 39.3869L23.9561 39.3876L39.1456 39.6944H39.1509C40.4376 39.7219 41.5771 40.5116 42.0544 41.7073C42.2123 42.1022 42.2885 42.5206 42.2808 42.9507C42.2806 42.9534 42.2806 42.9562 42.2805 42.959L42.2804 42.9632L41.9734 58.1478C41.9462 59.4951 41.0685 60.6465 39.8642 61.0885V49.1352C39.8642 48.8081 39.5991 48.5428 39.2717 48.5428C38.9444 48.5428 38.6793 48.8081 38.6793 49.1352V61.2791C37.837 61.2539 37.0528 60.9074 36.4684 60.2989C35.8767 59.6828 35.5604 58.873 35.5776 58.0185L35.8075 46.6184ZM5.38362 60.0045C5.37766 60.0046 5.3715 60.0046 5.36541 60.0045C5.36239 60.0045 5.35939 60.0045 5.35643 60.0045C4.14361 59.9943 3.09027 59.3057 2.55676 58.3006H11.88C12.2074 58.3006 12.4725 58.0353 12.4725 57.7081C12.4725 57.3809 12.2074 57.1156 11.88 57.1156H2.2003C2.1904 57.0137 2.18511 56.9106 2.18511 56.8061C2.18497 55.9516 2.51759 55.1482 3.12163 54.544C3.72553 53.9398 4.52921 53.6072 5.38348 53.6072H16.7861C17.1133 53.6071 17.3786 53.3418 17.3786 53.0146L17.3787 45.9636C18.5315 46.8781 19.9873 47.4264 21.5698 47.4264C22.3262 47.4264 23.0666 47.3012 23.7759 47.0557L23.7762 56.8043C23.7762 58.0942 23.0093 59.2514 21.8224 59.7534C21.4298 59.9196 21.0129 60.0044 20.5825 60.0048L20.578 60.0046L20.5738 60.0046L20.5712 60.0046L5.38362 60.0045Z" fill="#373E9F"/>
<path d="M5.35643 60.0045C4.14361 59.9943 3.09027 59.3057 2.55676 58.3006H11.88C12.2074 58.3006 12.4725 58.0353 12.4725 57.7081C12.4725 57.3809 12.2074 57.1156 11.88 57.1156H2.2003C2.1904 57.0137 2.18511 56.9106 2.18511 56.8061C2.18497 55.9516 2.51759 55.1482 3.12163 54.544C3.72553 53.9398 4.52921 53.6072 5.38348 53.6072H16.7861C17.1133 53.6071 17.3786 53.3418 17.3786 53.0146L17.3787 45.9636C18.5315 46.8781 19.9873 47.4264 21.5698 47.4264C22.3262 47.4264 23.0666 47.3012 23.7759 47.0557L23.7762 56.8043C23.7762 58.0942 23.0093 59.2514 21.8224 59.7534C21.4298 59.9196 21.0129 60.0044 20.5825 60.0048L20.578 60.0046L20.5738 60.0046L20.5712 60.0046L5.38362 60.0045C5.37766 60.0046 5.3715 60.0046 5.36541 60.0045M5.35643 60.0045C5.35939 60.0045 5.36239 60.0045 5.36541 60.0045M5.35643 60.0045L5.36541 60.0045M36.5151 29.7737C34.9336 31.3633 32.4608 33.5482 32.4608 33.5482C31.9024 34.0708 31.1736 34.3586 30.4081 34.3586C29.6358 34.3586 28.8866 34.0572 28.3276 33.5249V38.2905L39.1629 38.5094C39.1666 38.5094 39.1705 38.5094 39.1744 38.5095C40.9382 38.5466 42.5004 39.6288 43.1547 41.2675C43.3726 41.8124 43.4769 42.3889 43.4655 42.9691C43.4655 42.976 43.4653 42.9847 43.4649 42.9933L43.1581 58.1715C43.1103 60.5398 41.1449 62.4667 38.7766 62.4667C38.7467 62.4667 38.7172 62.4664 38.6871 62.4658C37.5162 62.4423 36.4245 61.9641 35.6136 61.1196C34.8028 60.2752 34.3691 59.1653 34.3928 57.9946L34.6109 47.1866L24.9607 46.9917L24.9608 56.8053C24.9611 58.5714 23.9103 60.157 22.2844 60.8447C21.7432 61.0739 21.1687 61.1899 20.5906 61.1896C20.5835 61.1896 20.5749 61.1895 20.5661 61.1896L5.38362 61.1895C5.37094 61.1895 5.35867 61.1896 5.34612 61.1893C2.94668 61.1692 1.00003 59.2106 1.00003 56.8063C0.999887 55.6351 1.45574 54.5341 2.28367 53.7062C3.1116 52.8783 4.21247 52.4223 5.3832 52.4223L16.1931 52.4221L16.1934 44.7562C15.3278 43.6205 14.8124 42.204 14.8124 40.669V22.9067C14.8124 19.1804 17.8439 16.1489 21.5701 16.1489C25.2962 16.1489 28.3277 19.1804 28.3277 22.9067V24.7271L30.5593 27.1076C32.2687 25.5119 33.2271 24.6173 34.9365 23.0216C35.3776 22.6046 35.9262 22.3377 36.5151 22.2413C36.7005 22.2165 37.1969 22.19 37.7001 22.2827C38.165 22.3941 38.6006 22.6143 38.9652 22.9271C41.2771 25.239 38.0967 28.184 36.5151 29.7737ZM30.4079 33.1738C30.8715 33.1738 31.3131 32.9995 31.6524 32.6821L38.2567 26.5336C38.6107 26.1991 38.8132 25.7465 38.8269 25.2595C38.8406 24.7724 38.6638 24.3093 38.3291 23.9551C37.9811 23.5869 37.5102 23.384 37.0033 23.384C36.5356 23.384 36.0908 23.5611 35.748 23.8852L30.9357 28.3771C30.6967 28.6002 30.3228 28.5876 30.0992 28.3492L23.5137 21.3243C23.1657 20.9562 22.6949 20.7535 22.1879 20.7535C21.7204 20.7535 21.2754 20.9305 20.9354 21.252C20.2045 21.9429 20.1718 23.0995 20.8644 23.8324L29.0794 32.6014C29.4283 32.9705 29.9001 33.1738 30.4079 33.1738ZM27.1428 32.2674L20.0014 24.6444C18.8619 23.4387 18.9157 21.5305 20.1211 20.3909C20.6822 19.8606 21.4162 19.5685 22.1878 19.5685C23.0117 19.5685 23.8088 19.9117 24.3763 20.5122L27.1427 23.4631V22.9067C27.1427 19.8338 24.6427 17.3339 21.5699 17.3339C18.4972 17.3339 15.9972 19.8338 15.9972 22.9067V40.6692C15.9972 43.7095 18.4452 46.1872 21.4732 46.2391C20.2643 45.4361 19.4768 44.0521 19.508 42.4969C19.5567 40.0984 21.569 38.1532 23.9797 38.2028L27.1425 38.2667L27.1428 32.2674ZM35.2272 46.0141C35.5544 46.0206 35.8142 46.2912 35.8075 46.6184L35.5776 58.0185C35.5604 58.873 35.8767 59.6828 36.4684 60.2989C37.0528 60.9074 37.837 61.2539 38.6793 61.2791V49.1352C38.6793 48.8081 38.9444 48.5428 39.2717 48.5428C39.5991 48.5428 39.8642 48.8081 39.8642 49.1352V61.0885C41.0685 60.6465 41.9462 59.4951 41.9734 58.1478L42.2804 42.9632L42.2805 42.959C42.2806 42.9562 42.2806 42.9534 42.2808 42.9507C42.2885 42.5206 42.2123 42.1022 42.0544 41.7073C41.5771 40.5116 40.4376 39.7219 39.1509 39.6944H39.1456L23.9561 39.3876L23.8896 39.3869C22.1619 39.3869 20.7279 40.793 20.6929 42.521C20.6575 44.2845 22.0636 45.7482 23.8272 45.7841L23.8414 45.7844L35.2272 46.0141Z" stroke="#373E9F"/>
</svg>
