<svg width="56" height="56" viewBox="0 0 56 56" fill="none" xmlns="http://www.w3.org/2000/svg">
<path d="M27.919 0.942383L14.3308 28.1187L27.919 55.295C42.928 55.295 55.0952 43.1277 55.0952 28.1187C55.0952 13.1096 42.928 0.942383 27.919 0.942383Z" fill="#373E9F"/>
<path d="M0.742676 28.1187C0.742676 43.1277 12.9099 55.295 27.919 55.295V0.942383C12.9099 0.942383 0.742676 13.1096 0.742676 28.1187Z" fill="#373E9F"/>
<path d="M27.7705 4.50647L15.8901 28.1187L27.7705 51.7308C40.8932 51.7308 51.5312 41.1593 51.5312 28.1187C51.5312 15.078 40.8932 4.50647 27.7705 4.50647Z" fill="#FFD85E"/>
<path d="M4.30688 28.1187C4.30688 41.1593 15.0779 51.7308 28.3646 51.7308V4.50647C15.0779 4.50647 4.30688 15.078 4.30688 28.1187Z" fill="#F9F9F9"/>
<path d="M32.4229 30.3705L27.919 25.8667H25.7959L27.919 30.3705L30.171 32.6225L32.4229 30.3705Z" fill="#340D66"/>
<path d="M18.8735 16.8215L16.6216 19.0735L27.9187 30.3706V25.8668L18.8735 16.8215Z" fill="#373E9F"/>
<path d="M37.002 16.7838L27.919 25.8666L25.7959 30.3705H27.919L39.2538 19.0356L37.002 16.7838Z" fill="#373E9F"/>
<path d="M23.415 30.3705L25.667 32.6225L27.9189 30.3705V25.8667L23.415 30.3705Z" fill="#3857BC"/>
<path d="M29.5114 10.4966H27.919L26.8574 12.0889L27.919 13.6813H29.5114V10.4966Z" fill="#340D66"/>
<path d="M26.3267 10.4966H27.919V13.6813H26.3267V10.4966Z" fill="#373E9F"/>
<path d="M29.5114 42.556H27.919L26.8574 44.1484L27.919 45.7408H29.5114V42.556Z" fill="#340D66"/>
<path d="M26.3267 42.556H27.919V45.7408H26.3267V42.556Z" fill="#373E9F"/>
<path d="M10.2969 29.7111V26.5263H13.4816V29.7111H10.2969Z" fill="#373E9F"/>
<path d="M42.3564 29.7111V26.5263H45.5412V29.7111H42.3564Z" fill="#340D66"/>
</svg>
