<svg width="67" height="61" viewBox="0 0 67 61" fill="none" xmlns="http://www.w3.org/2000/svg">
<path d="M51.7541 7.51083C51.3122 10.7298 48.5513 13.2201 45.2127 13.2201C41.5685 13.2201 38.6041 10.2548 38.6041 6.60956C38.6041 2.96565 41.5685 0 45.2127 0C48.5513 0 51.3122 2.48981 51.7541 5.70829H52.464C52.9617 5.70829 53.3652 6.11237 53.3652 6.60956C53.3652 7.10752 52.9617 7.51083 52.464 7.51083H51.7541ZM45.2127 11.4174C47.5543 11.4174 49.505 9.7321 49.9284 7.51083H40.4977C40.9224 9.73236 42.872 11.4174 45.2127 11.4174ZM45.2127 1.80279C42.8713 1.80279 40.9216 3.4883 40.4977 5.70829H49.9284C49.505 3.4883 47.5553 1.80279 45.2127 1.80279Z" fill="#373E9F"/>
<path d="M22.4014 34.9237L13.0754 44.2504C12.8992 44.4258 12.6685 44.5146 12.4378 44.5146C12.2071 44.5146 11.9758 44.4256 11.8004 44.2504L0.264244 32.7142C0.0944824 32.5452 0.000343323 32.3163 0.000343323 32.0768C0.000343323 31.8382 0.0944824 31.6087 0.264244 31.4395L5.74362 25.9606C5.74362 25.9599 5.74362 25.9588 5.74542 25.9581C5.74645 25.9573 5.74722 25.9573 5.74825 25.9562L9.59124 22.1127C9.92896 21.7748 10.5277 21.7748 10.8657 22.1127L15.683 26.9293C15.6442 26.7184 15.6177 26.5041 15.6177 26.2832C15.6177 25.1401 16.1388 24.0812 17.0236 23.3949L25.4331 16.4114C25.9797 15.8401 26.696 15.4595 27.47 15.3283C27.4988 15.3172 27.5271 15.308 27.559 15.301L36.7592 12.9462C37.4773 12.6162 38.2443 12.4208 39.0406 12.3649C39.1098 12.3521 39.1785 12.3495 39.2487 12.3521C39.3341 12.3467 39.42 12.3421 39.507 12.3421C41.8219 12.3421 43.986 13.5744 45.1774 15.5626L49.2867 20.9769L56.5696 19.1576C56.7057 19.1131 57.1998 18.9979 57.1998 18.9979C57.2988 18.9755 57.3996 18.9688 57.4961 18.9817C58.4092 18.9249 59.2564 19.2325 59.9342 19.7559V16.4832C59.1456 15.7324 58.7016 14.7056 58.7016 13.6034C58.7016 12.126 59.5126 10.7785 60.8177 10.0843C61.0981 9.93533 61.4342 9.94485 61.7048 10.1079C61.9759 10.2707 62.1418 10.564 62.1418 10.8803V12.6072H63.2316V10.8803C63.2316 10.564 63.3975 10.2707 63.6686 10.1079C63.9402 9.94382 64.2774 9.93636 64.5555 10.0843C65.8616 10.7782 66.6729 12.1268 66.6729 13.6034C66.6729 14.7063 66.2281 15.7324 65.4388 16.4832V27.5787C66.2274 28.3295 66.6729 29.355 66.6729 30.4574C66.6729 31.9344 65.8616 33.2829 64.5563 33.9766C64.278 34.1245 63.94 34.1158 63.6684 33.9537C63.3973 33.7909 63.2314 33.4979 63.2314 33.1808V31.2304H62.1416V33.1808C62.1416 33.4977 61.9757 33.7909 61.7046 33.9537C61.5621 34.0401 61.4013 34.0823 61.2403 34.0823C61.0952 34.0823 60.9489 34.0471 60.8167 33.9776C59.5116 33.2832 58.7006 31.9346 58.7006 30.4585C58.7006 29.3563 59.1448 28.3298 59.9334 27.5798V25.5689C59.3405 26.0224 58.6139 26.3079 57.8168 26.3318L48.9597 28.3162C48.8522 28.3403 48.7308 28.3352 48.6099 28.3092C47.1109 28.4985 45.6291 27.7349 44.9182 26.4233L44.0771 24.9189L40.1778 33.8925L45.6101 38.5321C45.8094 38.6771 45.9998 38.8358 46.1726 39.01C46.1834 39.0205 46.1934 39.0329 46.2042 39.0434C47.0427 39.9076 47.5029 41.044 47.5029 42.2465C47.5029 42.9271 45.7508 49.7151 44.5658 54.2243L48.602 55.7313C48.8208 55.8131 48.9994 55.9769 49.1002 56.1871C49.6069 56.5806 49.9197 57.193 49.9197 57.8517C49.9197 59.2317 47.9106 59.885 47.4136 59.885C47.3946 59.885 47.3748 59.885 47.355 59.8832L40.4175 60.0697C40.2197 60.098 40.0201 60.1175 39.8136 60.1175C39.6114 60.1175 39.4131 60.1 39.2186 60.0717H38.9185C38.9159 60.0717 38.9131 60.0717 38.9105 60.0717C38.7022 60.0496 38.4542 59.9835 38.2911 59.8356C36.6391 59.2088 35.5184 57.6177 35.5184 55.8221C35.5184 55.7393 35.5212 55.6582 35.5264 55.5775C35.5096 55.5078 35.5004 55.4347 35.5004 55.3599C35.5004 55.2007 35.5418 55.051 35.6148 54.9206C35.6828 54.6055 35.7869 54.2966 35.9276 53.9982L39.0489 44.7689C38.9938 44.6853 38.9416 44.5992 38.8922 44.5094L33.2902 39.4349L32.437 43.7226C32.4267 43.7702 32.4136 43.8175 32.3969 43.8643C31.9311 45.1002 30.9578 46.0789 29.7651 46.5314L18.5 51.4845V56.7491C18.5 56.9788 18.4138 57.1892 18.2729 57.3484C17.9843 58.1768 17.2044 58.7533 16.2872 58.7533C15.3137 58.7533 14.4353 57.7321 14.1043 57.2938C14.0505 57.2236 14.0073 57.1459 13.9775 57.0649L11.5368 50.5099C11.322 50.129 11.1687 49.7187 11.081 49.2874L11.0465 49.1976C10.9938 49.0585 10.9833 48.9106 11.0062 48.766C10.9956 48.6518 10.9902 48.5355 10.9902 48.4193C10.9902 46.3984 12.4038 44.6519 14.3702 44.2257L24.065 39.8932L27.2313 29.942C27.2426 29.905 27.2568 29.87 27.2725 29.8347L30.8937 22.0528L29.6463 22.3134L21.7339 29.0343C21.0598 29.6321 20.1937 29.9613 19.2958 29.9613C19.0741 29.9613 18.8593 29.9332 18.6479 29.8954L22.4014 33.6497C22.7535 34.001 22.7535 34.5715 22.4014 34.9237ZM61.2387 29.4271H64.1311C64.35 29.4271 64.5509 29.5055 64.7078 29.6359C64.5611 29.2768 64.3178 28.9584 63.993 28.7136C63.7677 28.543 63.6352 28.2773 63.6352 27.9944V16.0685C63.6352 15.7856 63.7677 15.5196 63.993 15.3494C64.4125 15.033 64.6972 14.5937 64.8117 14.1009C64.6465 14.2909 64.4024 14.4113 64.1311 14.4113H61.2387C60.9671 14.4113 60.7238 14.2912 60.5592 14.1019C60.6737 14.5939 60.9584 15.0333 61.3774 15.3496C61.6027 15.5199 61.7352 15.7859 61.7352 16.0688V27.9944C61.7352 28.2776 61.6027 28.5433 61.3774 28.7136C61.053 28.9579 60.8095 29.2761 60.6636 29.6346C60.8185 29.5055 61.0196 29.4271 61.2387 29.4271ZM20.5513 27.6734L28.6527 20.7904C28.7669 20.6932 28.906 20.6258 29.0524 20.5949L32.2845 19.9198C32.6194 19.8511 32.9617 19.9756 33.1742 20.2413C33.3859 20.508 33.4296 20.8725 33.2863 21.1814L28.9317 30.5413L25.6615 40.8218C25.5841 41.0656 25.4046 41.267 25.1705 41.3719L15.0148 45.9086C14.9523 45.9387 14.8844 45.9588 14.816 45.9711C13.6441 46.1947 12.7933 47.222 12.7933 48.4157C12.7933 48.5317 12.8056 48.6446 12.8203 48.757C12.8231 48.7781 12.8249 48.7994 12.8264 48.8213C12.8318 48.838 12.8352 48.8558 12.837 48.8733C12.8907 49.1549 12.9903 49.4216 13.1325 49.6655C13.1598 49.7113 13.1827 49.7586 13.2004 49.808L15.6182 56.3005C15.8657 56.6035 16.2021 56.9096 16.289 56.9484C16.4454 56.9484 16.574 56.8288 16.5882 56.6686C16.6005 56.5382 16.6383 56.4167 16.6993 56.3095V50.8944C16.6993 50.5369 16.9094 50.2123 17.2379 50.0688L29.0822 44.8631C29.8129 44.5868 30.3929 44.0156 30.6844 43.2936L31.7935 37.7262C31.7618 37.469 31.8624 37.2067 32.0373 37.006C32.2441 36.7666 32.5957 36.6591 32.9098 36.7121C32.9157 36.7139 33.0016 36.7262 33.0078 36.727C33.3715 36.7843 33.6616 37.058 33.7431 37.4127L40.2176 43.2787C40.2982 43.3507 40.3637 43.4368 40.4136 43.532C40.5091 43.7177 40.621 43.8877 40.746 44.039C40.9463 44.2795 41.0075 44.6069 40.9075 44.9035L37.6203 54.6281C37.6075 54.6651 37.5931 54.7001 37.5771 54.7338C37.4804 54.9324 37.4112 55.1384 37.3708 55.3444C37.367 55.3637 37.3623 55.3833 37.3572 55.4028C37.3564 55.4257 37.3536 55.4486 37.351 55.4715C37.3356 55.5878 37.323 55.7038 37.323 55.8236C37.323 56.952 38.0856 57.9412 39.177 58.2298C39.2166 58.2404 39.2544 58.2548 39.2914 58.2705C39.3344 58.2705 39.3789 58.2748 39.4221 58.2818C39.677 58.3206 39.9476 58.3206 40.2025 58.2818C40.2395 58.2764 40.2773 58.2723 40.3151 58.2723L47.3655 58.0804C47.56 58.0295 47.9196 57.8646 48.0922 57.7301C48.0544 57.6465 47.9821 57.5927 47.917 57.568C47.7406 57.503 47.597 57.3867 47.4962 57.2442L43.1725 55.6299C42.7386 55.4669 42.4983 55.0031 42.6161 54.5543C43.7728 50.1647 45.634 42.9301 45.7014 42.2478C45.7014 41.5093 45.4149 40.8102 44.8927 40.2806C44.8891 40.277 44.8858 40.2737 44.8814 40.2701C44.7793 40.1679 44.6659 40.0746 44.4964 39.9488L38.5 34.8285C38.1991 34.5715 38.1003 34.1474 38.2585 33.7829L43.1491 22.5302C43.2854 22.2154 43.5892 22.0055 43.9307 21.9893C44.2687 21.9769 44.5949 22.1508 44.7626 22.4502L46.4969 25.5527C46.8861 26.27 47.7496 26.6466 48.5166 26.4979C48.6058 26.4799 48.7048 26.4838 48.8062 26.5015L57.5128 24.5506C57.5779 24.5359 57.6434 24.529 57.7106 24.529C58.7443 24.529 59.5862 23.6879 59.5862 22.6542C59.5862 21.5471 58.58 20.6711 57.4966 20.7907C57.4757 20.7925 57.4541 20.7948 57.4336 20.7948C57.3147 20.8233 57.1602 20.8612 57.0647 20.8902L49.1467 22.8702C48.7959 22.9561 48.4281 22.8288 48.2102 22.5407L43.7718 16.6925C43.7304 16.6467 43.6936 16.5971 43.6622 16.5421C42.8021 15.0628 41.2102 14.1443 39.5075 14.1443C39.4463 14.1443 39.3869 14.1492 39.2474 14.158C39.2348 14.1587 39.222 14.1587 39.2096 14.1598C38.5931 14.1976 38.0015 14.3498 37.4511 14.6112C37.3978 14.6369 37.3438 14.6567 37.287 14.6706L28.1014 17.0225C28.0204 17.0588 27.9353 17.083 27.8463 17.0948C27.4157 17.1493 27.0134 17.3579 26.7143 17.6815C26.687 17.7101 26.6588 17.7384 26.6271 17.7633L18.1525 24.8011C17.6875 25.1615 17.4218 25.7024 17.4218 26.2839C17.4218 27.3177 18.2626 28.1588 19.2966 28.1588C19.7521 28.1593 20.1937 27.9905 20.5513 27.6734ZM12.4381 42.3386L16.6445 38.1313L12.152 33.6386L11.9707 33.82C11.7945 33.9959 11.5641 34.0823 11.3331 34.0823C11.1026 34.0823 10.8711 33.9941 10.6942 33.8182C10.3431 33.4663 10.3431 32.8958 10.6942 32.5437L10.8755 32.3634L6.38279 27.8712L2.17558 32.0774L12.4381 42.3386ZM10.2289 24.0256L7.65778 26.5964L12.7894 31.726C12.7894 31.726 12.7894 31.726 12.7894 31.7268L17.9182 36.8566L20.4893 34.2855L10.2289 24.0256Z" fill="#373E9F"/>
</svg>
