<svg width="54" height="65" viewBox="0 0 54 65" fill="none" xmlns="http://www.w3.org/2000/svg">
<path d="M18.2713 39.7687C18.0432 39.7687 17.8244 39.6781 17.6631 39.5168C17.5018 39.3554 17.4111 39.1366 17.4111 38.9085V36.3795C17.4111 36.1514 17.5018 35.9326 17.6631 35.7712C17.8244 35.6099 18.0432 35.5193 18.2713 35.5193C18.4995 35.5193 18.7183 35.6099 18.8796 35.7712C19.0409 35.9326 19.1315 36.1514 19.1315 36.3795V38.9085C19.1315 39.1366 19.0409 39.3554 18.8796 39.5168C18.7183 39.6781 18.4995 39.7687 18.2713 39.7687Z" fill="#373E9F" stroke="#373E9F"/>
<path d="M49.2388 61.7038H20.852C19.9394 61.7038 19.0642 61.3413 18.4189 60.696C17.7736 60.0507 17.4111 59.1755 17.4111 58.263V53.4802C17.4111 53.2521 17.5018 53.0333 17.6631 52.872C17.8244 52.7107 18.0432 52.62 18.2713 52.62C18.4995 52.62 18.7183 52.7107 18.8796 52.872C19.0409 53.0333 19.1315 53.2521 19.1315 53.4802V58.263C19.1315 58.7193 19.3128 59.1569 19.6354 59.4795C19.9581 59.8021 20.3957 59.9834 20.852 59.9834H49.2388C49.695 59.9834 50.1326 59.8021 50.4553 59.4795C50.7779 59.1569 50.9592 58.7193 50.9592 58.263V4.9302C50.9592 4.47392 50.7779 4.03633 50.4553 3.71369C50.1326 3.39105 49.695 3.20979 49.2388 3.20979H20.852C20.3957 3.20979 19.9581 3.39105 19.6354 3.71369C19.3128 4.03633 19.1315 4.47392 19.1315 4.9302V30.3579C19.1315 30.586 19.0409 30.8048 18.8796 30.9662C18.7183 31.1275 18.4995 31.2181 18.2713 31.2181C18.0432 31.2181 17.8244 31.1275 17.6631 30.9662C17.5018 30.8048 17.4111 30.586 17.4111 30.3579V4.9302C17.4111 4.01764 17.7736 3.14245 18.4189 2.49717C19.0642 1.85189 19.9394 1.48938 20.852 1.48938H49.2388C50.1513 1.48938 51.0265 1.85189 51.6718 2.49717C52.3171 3.14245 52.6796 4.01764 52.6796 4.9302V58.263C52.6796 59.1755 52.3171 60.0507 51.6718 60.696C51.0265 61.3413 50.1513 61.7038 49.2388 61.7038Z" fill="#373E9F" stroke="#373E9F"/>
<path d="M18.2713 48.319C18.0432 48.319 17.8244 48.2284 17.6631 48.067C17.5018 47.9057 17.4111 47.6869 17.4111 47.4588V44.9298C17.4111 44.7016 17.5018 44.4828 17.6631 44.3215C17.8244 44.1602 18.0432 44.0696 18.2713 44.0696C18.4995 44.0696 18.7183 44.1602 18.8796 44.3215C19.0409 44.4828 19.1315 44.7016 19.1315 44.9298V47.4588C19.1315 47.6869 19.0409 47.9057 18.8796 48.067C18.7183 48.2284 18.4995 48.319 18.2713 48.319Z" fill="#373E9F" stroke="#373E9F"/>
<path d="M51.8194 24.7149H18.2713C18.0432 24.7149 17.8244 24.6243 17.6631 24.463C17.5018 24.3017 17.4111 24.0829 17.4111 23.8547C17.4111 23.6266 17.5018 23.4078 17.6631 23.2465C17.8244 23.0851 18.0432 22.9945 18.2713 22.9945H51.8194C52.0475 22.9945 52.2663 23.0851 52.4276 23.2465C52.589 23.4078 52.6796 23.6266 52.6796 23.8547C52.6796 24.0829 52.589 24.3017 52.4276 24.463C52.2663 24.6243 52.0475 24.7149 51.8194 24.7149Z" fill="#373E9F" stroke="#373E9F"/>
<path d="M46.6581 17.8333C46.4299 17.8333 46.2111 17.7427 46.0498 17.5813C45.8885 17.42 45.7979 17.2012 45.7979 16.9731V10.9516C45.7979 10.7235 45.8885 10.5047 46.0498 10.3434C46.2111 10.1821 46.4299 10.0914 46.6581 10.0914C46.8862 10.0914 47.105 10.1821 47.2663 10.3434C47.4276 10.5047 47.5183 10.7235 47.5183 10.9516V16.9731C47.5183 17.2012 47.4276 17.42 47.2663 17.5813C47.105 17.7427 46.8862 17.8333 46.6581 17.8333Z" fill="#373E9F" stroke="#373E9F"/>
<path d="M46.6581 46.2201C46.4299 46.2201 46.2111 46.1295 46.0498 45.9682C45.8885 45.8068 45.7979 45.588 45.7979 45.3599V34.1772C45.7979 33.9491 45.8885 33.7303 46.0498 33.569C46.2111 33.4076 46.4299 33.317 46.6581 33.317C46.8862 33.317 47.105 33.4076 47.2663 33.569C47.4276 33.7303 47.5183 33.9491 47.5183 34.1772V45.3599C47.5183 45.588 47.4276 45.8068 47.2663 45.9682C47.105 46.1295 46.8862 46.2201 46.6581 46.2201Z" fill="#373E9F" stroke="#373E9F"/>
<path d="M37.2053 62.3572L26.1215 51.2733C28.4237 48.7172 29.8386 45.347 29.8386 41.6442C29.8386 33.6935 23.3701 27.225 15.4193 27.225C7.46855 27.225 1 33.6935 1 41.6443C1 49.5951 7.46855 56.0636 15.4193 56.0636C19.1221 56.0636 22.4922 54.6487 25.0484 52.3465L36.1322 63.4303C36.2804 63.5785 36.4747 63.6527 36.6688 63.6527C36.863 63.6527 37.0571 63.5785 37.2054 63.4303C37.5018 63.1339 37.5018 62.6536 37.2053 62.3572ZM15.4193 54.5457C8.30603 54.5457 2.51787 48.7583 2.51787 41.6443C2.51787 34.5303 8.30603 28.7428 15.4193 28.7428C22.5326 28.7428 28.3208 34.5302 28.3208 41.6443C28.3208 48.7584 22.5326 54.5457 15.4193 54.5457Z" fill="#FFC614" stroke="#FFC614"/>
</svg>
