<svg width="70" height="70" viewBox="0 0 70 70" fill="none" xmlns="http://www.w3.org/2000/svg">
<rect x="2.00073" y="62" width="66" height="6" fill="#FFC614"/>
<rect x="2.00073" y="56" width="17" height="6" fill="#FFC614"/>
<rect x="52.0007" y="57" width="17" height="6" fill="#FFC614"/>
<circle cx="62.0007" cy="8" r="6" fill="#FFC614"/>
<path d="M61.7976 16.4062C57.2741 16.4062 53.5945 12.7266 53.5945 8.20312C53.5945 3.67966 57.2741 0 61.7976 0C66.3211 0 70.0007 3.67966 70.0007 8.20312C70.0007 12.7266 66.3211 16.4062 61.7976 16.4062ZM61.7976 2.73438C58.7823 2.73438 56.3289 5.18784 56.3289 8.20312C56.3289 11.2184 58.7823 13.6719 61.7976 13.6719C64.8129 13.6719 67.2664 11.2184 67.2664 8.20312C67.2664 5.18784 64.8129 2.73438 61.7976 2.73438Z" fill="#373E9F"/>
<path d="M36.6104 15.0925H1.36792C0.612762 15.0925 0.000732422 14.4799 0.000732422 13.7253C0.000732422 8.9994 3.91698 5.1638 8.67116 5.30907C10.6749 2.0118 14.2179 0 18.1261 0C21.3283 0 24.381 1.40511 26.4734 3.80142C27.2046 3.61984 27.9565 3.52852 28.7197 3.52852C33.8525 3.52852 38.0283 7.70432 38.0283 12.8366C38.0283 13.1747 38.008 13.5245 37.969 13.8764C37.8916 14.5691 37.3068 15.0925 36.6104 15.0925ZM2.9012 12.3581H35.2763C35.0301 8.95561 32.1836 6.26289 28.7197 6.26289C27.9405 6.26289 27.1784 6.39748 26.4547 6.6629C25.8812 6.87386 25.2366 6.67732 24.8777 6.18279C23.3107 4.02359 20.7868 2.73438 18.1261 2.73438C14.9442 2.73438 12.0843 4.50584 10.6616 7.35718C10.3983 7.88483 9.82579 8.1839 9.2426 8.10005C8.96703 8.06 8.69038 8.0397 8.42068 8.0397C5.7568 8.0397 3.51483 9.88113 2.9012 12.3581Z" fill="#373E9F"/>
<path d="M61.1808 64.0666C61.0921 64.0666 61.0035 64.057 60.9143 64.0388C60.8267 64.0228 60.7407 63.9967 60.659 63.9625C60.5768 63.9283 60.4972 63.8861 60.4235 63.837C60.3482 63.7862 60.2787 63.7286 60.2157 63.6661C60.1516 63.6031 60.0956 63.5331 60.0448 63.4578C59.9957 63.3841 59.9535 63.305 59.9193 63.2228C59.8851 63.1395 59.859 63.0535 59.8414 62.967C59.8232 62.8783 59.8152 62.7881 59.8152 62.6994C59.8152 62.6102 59.8232 62.52 59.8414 62.4324C59.859 62.3453 59.8851 62.2588 59.9193 62.1771C59.9535 62.0938 59.9957 62.0142 60.0448 61.9405C60.094 61.8652 60.1516 61.7958 60.2147 61.7328C60.2771 61.6698 60.3482 61.6121 60.4224 61.563C60.4972 61.5138 60.5768 61.4716 60.659 61.4375C60.7407 61.4033 60.8267 61.3771 60.9143 61.3595C61.0905 61.3237 61.2726 61.3237 61.4489 61.3595C61.5365 61.3771 61.6224 61.4033 61.7047 61.4375C61.7869 61.4716 61.866 61.5138 61.9413 61.563C62.015 61.6121 62.086 61.6698 62.149 61.7328C62.212 61.7958 62.2692 61.8652 62.3183 61.9405C62.368 62.0142 62.4102 62.0938 62.4444 62.1771C62.4785 62.2594 62.5047 62.3453 62.5223 62.4324C62.5399 62.52 62.5496 62.6102 62.5496 62.6994C62.5496 62.7881 62.5399 62.8783 62.5223 62.967C62.5047 63.0535 62.4785 63.1395 62.4444 63.2228C62.4102 63.305 62.368 63.3841 62.3183 63.4578C62.2692 63.5331 62.212 63.6031 62.149 63.6661C62.086 63.7286 62.015 63.7862 61.9413 63.837C61.866 63.8861 61.7869 63.9283 61.7047 63.9625C61.6224 63.9967 61.5365 64.0228 61.4489 64.0388C61.3602 64.057 61.271 64.0666 61.1808 64.0666Z" fill="#373E9F"/>
<path d="M68.6335 55.3994H66.1005V40.1718L66.5101 40.4725C66.7494 40.6482 67.0335 40.7379 67.3198 40.7379C67.5302 40.7379 67.7422 40.6893 67.9371 40.5905C68.397 40.3577 68.687 39.8861 68.687 39.3707V31.8843C68.687 31.4491 68.4797 31.04 68.1289 30.782L49.432 17.0471C48.9503 16.6936 48.2945 16.6936 47.8128 17.0471L39.5979 23.082L35.8104 20.2996C35.3286 19.9455 34.6728 19.9455 34.1911 20.2996L30.403 23.082L22.1882 17.0471C21.707 16.6936 21.0511 16.6936 20.5694 17.0471L1.87207 30.7826C1.52173 31.04 1.31451 31.4491 1.31451 31.8843V39.3707C1.31451 39.8861 1.60451 40.3582 2.06433 40.5905C2.25926 40.6893 2.47075 40.7379 2.6817 40.7379C2.96742 40.7379 3.25208 40.6487 3.4908 40.473L3.90096 40.1718V55.3994H1.36792C0.612762 55.3994 0.000732422 56.0114 0.000732422 56.7666V68.6328C0.000732422 69.388 0.612762 70 1.36792 70H68.6335C69.3887 70 70.0007 69.388 70.0007 68.6328V56.7666C70.0007 56.0114 69.3887 55.3994 68.6335 55.3994ZM63.3661 38.1632L63.3667 55.3994H52.4794L52.4788 43.4237L52.889 43.7249C52.8959 43.7303 52.9029 43.7351 52.9098 43.7404C52.9125 43.742 52.9146 43.7431 52.9168 43.7447C52.9216 43.7484 52.9264 43.7516 52.9317 43.7548C52.9344 43.757 52.9371 43.7586 52.9397 43.7607C52.944 43.7634 52.9483 43.7666 52.9531 43.7692C52.9557 43.7714 52.959 43.7735 52.9622 43.7751C52.9664 43.7783 52.9712 43.781 52.976 43.7842C52.9782 43.7858 52.9809 43.7874 52.9835 43.7885C52.9883 43.7917 52.9937 43.7949 52.999 43.7981C53.0011 43.7992 53.0038 43.8008 53.006 43.8024C53.0124 43.8056 53.0182 43.8093 53.0246 43.813C53.0257 43.8136 53.0273 43.8146 53.0284 43.8152C53.0439 43.8237 53.0594 43.8323 53.0754 43.8403C53.0764 43.8408 53.077 43.8408 53.078 43.8413C53.0845 43.8451 53.0914 43.8483 53.0983 43.8515C53.0999 43.8526 53.1021 43.8536 53.1037 43.8542C53.1096 43.8574 53.116 43.86 53.1224 43.8627C53.124 43.8638 53.1256 43.8643 53.1272 43.8654C53.1341 43.868 53.1405 43.8713 53.1469 43.8745C53.1485 43.875 53.1496 43.8755 53.1507 43.8761C53.4647 44.0133 53.8209 44.0277 54.1467 43.9145C54.1478 43.914 54.1478 43.914 54.1483 43.914C54.1718 43.9054 54.1948 43.8969 54.2177 43.8873C54.2199 43.8862 54.222 43.8857 54.2241 43.8846C54.2284 43.883 54.2327 43.8814 54.237 43.8793C54.2396 43.8782 54.2423 43.8771 54.245 43.8761C54.2487 43.8745 54.2519 43.8729 54.2556 43.8713C54.2594 43.8696 54.2626 43.868 54.2663 43.8664C54.2695 43.8654 54.2727 43.8638 54.2759 43.8622C54.2797 43.8606 54.284 43.8584 54.2882 43.8563C54.2909 43.8552 54.293 43.8542 54.2957 43.8526C54.3026 43.8494 54.3091 43.8461 54.3155 43.8429C54.7753 43.6101 55.0653 43.1385 55.0653 42.6232V35.1362C55.0653 34.7009 54.8581 34.2919 54.5077 34.0344L47.0031 28.5219L48.6224 27.3326L63.3661 38.1632ZM38.1004 61.3323H31.9011V53.1767H38.1004V61.3323ZM39.4676 50.4423H30.5339C29.7793 50.4423 29.1667 51.0549 29.1667 51.8095V61.3323H20.257V41.4151L35.0007 30.5844L49.7445 41.4151L49.745 61.3323H40.8348V51.8095C40.8348 51.0549 40.2222 50.4423 39.4676 50.4423ZM48.6224 19.8456L65.9526 32.5765V36.67L49.432 24.5336C48.9882 24.2078 48.396 24.1822 47.9292 24.4572C47.8891 24.4807 47.8507 24.5063 47.8133 24.5336L44.6939 26.8252L41.9077 24.7782L48.6224 19.8456ZM35.0007 23.0975L52.3309 35.8283V39.9219L51.9213 39.6207L35.8104 27.786C35.7724 27.7582 35.734 27.7326 35.6945 27.7096C35.2667 27.4575 34.7348 27.4575 34.3075 27.7096C34.2675 27.7331 34.229 27.7582 34.1911 27.786L18.0802 39.6207L17.6706 39.9219V35.8283L35.0007 23.0975ZM4.04889 32.5765L21.3791 19.8456L28.0938 24.7782L25.3076 26.8252L22.1882 24.5341C21.707 24.18 21.0511 24.18 20.5694 24.5341L4.04889 36.67V32.5765ZM6.63533 38.1632L21.3791 27.332L22.9983 28.5219L15.4937 34.0344C15.4884 34.0382 15.4831 34.0425 15.4777 34.0462C15.1963 34.2598 15.0104 34.5712 14.9543 34.9146C14.9522 34.9279 14.9501 34.9413 14.9485 34.9546C14.9469 34.968 14.9453 34.9813 14.9437 34.9947C14.9389 35.0411 14.9362 35.0887 14.9362 35.1362V42.6232C14.9362 43.1385 15.2262 43.6101 15.686 43.8429C15.6929 43.8461 15.7004 43.8499 15.7074 43.8536C15.8628 43.9284 16.0273 43.9722 16.1939 43.9855C16.5159 44.0117 16.8433 43.9231 17.113 43.7249L17.5226 43.4237V55.3994H6.63586L6.63533 38.1632ZM17.5226 58.1338V61.3323H2.73511V58.1338H17.5226ZM67.2664 67.2656H2.73511V64.0666H55.6453C56.4004 64.0666 57.0125 63.4546 57.0125 62.6995C57.0125 61.9448 56.4004 61.3323 55.6453 61.3323H52.4794V58.1338H67.2664V67.2656Z" fill="#373E9F"/>
<path d="M35.0008 47.5739C31.7387 47.5739 29.0845 44.9201 29.0845 41.6576C29.0845 38.3956 31.7387 35.7418 35.0008 35.7418C38.2628 35.7418 40.9171 38.3956 40.9171 41.6576C40.9171 44.9201 38.2628 47.5739 35.0008 47.5739ZM35.0008 38.4757C33.2464 38.4757 31.8188 39.9032 31.8188 41.6576C31.8188 43.412 33.2464 44.8395 35.0008 44.8395C36.7551 44.8395 38.1827 43.412 38.1827 41.6576C38.1827 39.9032 36.7551 38.4757 35.0008 38.4757Z" fill="#373E9F"/>
</svg>
